# xmcd
#
# Track frame offsets:
#	150
#	36900
#	69535
#	84555
#	104420
#	126875
#	153707
#	170470
#	193987
#	213557
#	241525
#
# Disc length: 3460 seconds
#
# Revision: 1
# Processed by: cddbd v1.5PL3 Copyright (c) Steve Scherf et al.
# Submitted via: CDex 1.50Beta5
#
DISCID=9b0d820b
DTITLE=こまっちゃクレズマ - こまっちゃくれ
DYEAR=1900
DGENRE=
TTITLE0=ハバ・ナギラ
TTITLE1=月下の一群
TTITLE2=Rumelaj
TTITLE3=Jinta
TTITLE4=Bubamara
TTITLE5=Ausencia
TTITLE6=Copz Luca
TTITLE7=ダンスの楽園
TTITLE8=ツンバラライカ
TTITLE9=ウエスタン・ピカロ
TTITLE10=Ale Brider
EXTD=
EXTT0=
EXTT1=
EXTT2=
EXTT3=
EXTT4=
EXTT5=
EXTT6=
EXTT7=
EXTT8=
EXTT9=
EXTT10=
PLAYORDER=
